<svg xmlns="http://www.w3.org/2000/svg"  viewBox="0 0 64 64" width="64px" height="64px"><linearGradient id="QkwrL7znU21uRoaDc0Qs7a" x1="54.64" x2="54.64" y1="21.125" y2="41.918" gradientUnits="userSpaceOnUse" spreadMethod="reflect"><stop offset="0" stop-color="#1a6dff"/><stop offset="1" stop-color="#c822ff"/></linearGradient><path fill="url(#QkwrL7znU21uRoaDc0Qs7a)" d="M63,21c0,0.1-0.02,1.79-1.37,3h-4.05c-0.6,0-1.13,0.38-1.33,1h-9.97 c0.22-0.62,0.4-1.26,0.53-1.92c0.03-0.16,0.06-0.32,0.08-0.49c0.04-0.26,0.07-0.52,0.08-0.8c0.02-0.23,0.03-0.47,0.03-0.71V21H63z"/><linearGradient id="QkwrL7znU21uRoaDc0Qs7b" x1="8" x2="8" y1="21" y2="41.999" gradientUnits="userSpaceOnUse" spreadMethod="reflect"><stop offset="0" stop-color="#1a6dff"/><stop offset="1" stop-color="#c822ff"/></linearGradient><path fill="url(#QkwrL7znU21uRoaDc0Qs7b)" d="M10.44,21C5.204,21,1,28.64,1,35c0,1.95,0.809,6.998,4.924,6.998 c5.235,0,9.076-7.834,9.076-13.761C15,22.563,11.934,21,10.44,21z M4.976,39.876c-0.609,0-0.787-1.094-0.787-1.898 c0-3.144,4.192-15.013,6.483-15.013c0.145,0,0.74,0.254,0.74,2.034C11.412,31.105,6.659,39.876,4.976,39.876z"/><linearGradient id="QkwrL7znU21uRoaDc0Qs7c" x1="23" x2="23" y1="21" y2="41.999" gradientUnits="userSpaceOnUse" spreadMethod="reflect"><stop offset="0" stop-color="#1a6dff"/><stop offset="1" stop-color="#c822ff"/></linearGradient><path fill="url(#QkwrL7znU21uRoaDc0Qs7c)" d="M25.44,21C20.204,21,16,28.64,16,35c0,1.95,0.809,6.998,4.924,6.998 c5.235,0,9.076-7.834,9.076-13.761C30,22.563,26.934,21,25.44,21z M19.976,39.876c-0.609,0-0.787-1.094-0.787-1.898 c0-3.144,4.192-15.013,6.483-15.013c0.145,0,0.74,0.254,0.74,2.034C26.412,31.105,21.659,39.876,19.976,39.876z"/><linearGradient id="QkwrL7znU21uRoaDc0Qs7d" x1="22.8" x2="22.8" y1="22.97" y2="39.88" gradientUnits="userSpaceOnUse" spreadMethod="reflect"><stop offset="0" stop-color="#6dc7ff"/><stop offset="1" stop-color="#e6abff"/></linearGradient><path fill="url(#QkwrL7znU21uRoaDc0Qs7d)" d="M26.41,25c0,6.1-4.75,14.88-6.43,14.88c-0.61,0-0.79-1.1-0.79-1.9 c0-3.15,4.19-15.01,6.48-15.01C25.82,22.97,26.41,23.22,26.41,25z"/><linearGradient id="QkwrL7znU21uRoaDc0Qs7e" x1="7.8" x2="7.8" y1="22.97" y2="39.88" gradientUnits="userSpaceOnUse" spreadMethod="reflect"><stop offset="0" stop-color="#6dc7ff"/><stop offset="1" stop-color="#e6abff"/></linearGradient><path fill="url(#QkwrL7znU21uRoaDc0Qs7e)" d="M11.41,25c0,6.1-4.75,14.88-6.43,14.88c-0.61,0-0.79-1.1-0.79-1.9 c0-3.15,4.19-15.01,6.48-15.01C10.82,22.97,11.41,23.22,11.41,25z"/><linearGradient id="QkwrL7znU21uRoaDc0Qs7f" x1="48.49" x2="48.49" y1="21.125" y2="41.918" gradientUnits="userSpaceOnUse" spreadMethod="reflect"><stop offset="0" stop-color="#1a6dff"/><stop offset="1" stop-color="#c822ff"/></linearGradient><path fill="url(#QkwrL7znU21uRoaDc0Qs7f)" d="M56,26c0,0-0.68,1.35-1.64,1.35c-0.96,0-1.46,0.14-1.8,0.81s-1.54,2.87-1.95,3.68 c-0.4,0.81-1.24,2.16-2.66,2.16c-1.18,0-5.52-0.02-6.97-0.03c0.22-0.32,0.45-0.63,0.68-0.95c0.07-0.1,0.14-0.19,0.21-0.29h5.37 c0,0,1.3-0.18,1.79-0.96c0.5-0.78,1.65-3.65,1.65-3.65h-3.19c0,0-0.47,0.43-0.47,1.17c0,0.68,0.16,1.54,0.18,1.69 C47.06,30.8,46,29.32,46,28.2c0-1.4,0.57-2.2,0.57-2.2H56z"/><linearGradient id="QkwrL7znU21uRoaDc0Qs7g" x1="38.5" x2="38.5" y1="21" y2="42" gradientUnits="userSpaceOnUse" spreadMethod="reflect"><stop offset="0" stop-color="#1a6dff"/><stop offset="1" stop-color="#c822ff"/></linearGradient><path fill="url(#QkwrL7znU21uRoaDc0Qs7g)" d="M46,21c0.047,7.85-8.859,13.51-10.125,21H31c2.784-9.46,7.791-11.59,10.125-18h-6.009 c-0.309,0.55-0.984,1.84-1.134,3h-2.625c0-1.63,2.034-6,2.034-6H46z"/></svg>