<svg width="277" height="52" viewBox="0 0 277 52" fill="none" xmlns="http://www.w3.org/2000/svg">
<path d="M6.44824 48.7852C5.47949 48.7852 4.60156 48.6439 3.81445 48.3613C3.02734 48.099 2.35124 47.7256 1.78613 47.2412C1.22103 46.7568 0.777018 46.1917 0.454102 45.5459C0.151367 44.8799 0 44.1634 0 43.3965C0 41.6406 0.605469 40.2682 1.81641 39.2793C3.04753 38.2702 4.73275 37.7656 6.87207 37.7656C8.40592 37.7656 9.80859 37.9775 11.0801 38.4014C12.3516 38.805 13.5322 39.3298 14.6221 39.9756C14.8844 38.9059 15.0156 37.695 15.0156 36.3428C15.0156 34.9502 14.9551 33.5879 14.834 32.2559C14.7129 30.9036 14.5716 29.5716 14.4102 28.2598C14.2689 26.9277 14.1377 25.6159 14.0166 24.3242C13.8955 23.0326 13.835 21.7409 13.835 20.4492C13.835 17.543 14.1175 15.0303 14.6826 12.9111C15.2477 10.7718 15.9844 8.9554 16.8926 7.46191C17.821 5.96842 18.8704 4.75749 20.041 3.8291C21.2318 2.90072 22.4427 2.17415 23.6738 1.64941C24.9049 1.12467 26.1058 0.771484 27.2764 0.589844C28.4671 0.408203 29.5267 0.317383 30.4551 0.317383C31.8477 0.317383 33.099 0.549479 34.209 1.01367C35.3392 1.47786 36.2979 2.09342 37.085 2.86035C37.8923 3.62728 38.5078 4.50521 38.9316 5.49414C39.3555 6.46289 39.5674 7.46191 39.5674 8.49121C39.5674 9.4196 39.4564 10.2975 39.2344 11.125C39.0124 11.9525 38.7601 12.6891 38.4775 13.335C38.2152 13.9606 37.9629 14.4652 37.7207 14.8486C37.4785 15.2321 37.3473 15.444 37.3271 15.4844L36.3887 14.8184C36.752 14.2734 37.085 13.668 37.3877 13.002C37.6299 12.4368 37.8519 11.791 38.0537 11.0645C38.2757 10.3379 38.3867 9.56087 38.3867 8.7334C38.3867 7.72428 38.195 6.78581 37.8115 5.91797C37.4482 5.02995 36.9235 4.26302 36.2373 3.61719C35.5713 2.95117 34.7539 2.43652 33.7852 2.07324C32.8164 1.68978 31.7266 1.49805 30.5156 1.49805C28.3965 1.49805 26.5094 1.94206 24.8545 2.83008C23.1995 3.69792 21.807 4.83822 20.6768 6.25098C19.5465 7.64355 18.6888 9.21777 18.1035 10.9736C17.5182 12.7093 17.2256 14.445 17.2256 16.1807C17.2256 17.3311 17.276 18.5319 17.377 19.7832C17.4779 21.0345 17.5788 22.3262 17.6797 23.6582C17.8008 24.9701 17.9118 26.3122 18.0127 27.6846C18.1136 29.057 18.1641 30.4294 18.1641 31.8018C18.1641 33.6383 18.0329 35.3538 17.7705 36.9482C17.5283 38.5225 17.1449 39.9655 16.6201 41.2773C17.7301 42.1048 18.8099 42.9626 19.8594 43.8506C20.9089 44.7386 21.9785 45.556 23.0684 46.3027C24.1784 47.0495 25.3389 47.6549 26.5498 48.1191C27.7809 48.6035 29.123 48.8457 30.5762 48.8457C32.4531 48.8457 34.1686 48.4421 35.7227 47.6348C37.2969 46.8477 38.6491 45.8184 39.7793 44.5469C40.9095 43.2754 41.7874 41.8525 42.4131 40.2783C43.0387 38.7041 43.3516 37.14 43.3516 35.5859C43.3516 35.0208 43.2708 34.3548 43.1094 33.5879C42.9479 32.821 42.6553 32.1247 42.2314 31.499L42.958 30.9238C42.9782 30.9642 43.1195 31.1559 43.3818 31.499C43.6442 31.8219 43.9268 32.2861 44.2295 32.8916C44.5322 33.4769 44.8047 34.1833 45.0469 35.0107C45.3092 35.8382 45.4404 36.7767 45.4404 37.8262C45.4404 39.3197 45.168 40.8031 44.623 42.2764C44.0781 43.7295 43.2406 45.0312 42.1104 46.1816C40.9801 47.3522 39.5371 48.2907 37.7812 48.9971C36.0456 49.7236 33.987 50.0869 31.6055 50.0869C29.7285 50.0869 28.0736 49.8346 26.6406 49.3301C25.2077 48.8457 23.8958 48.2201 22.7051 47.4531C21.5345 46.6862 20.4245 45.8486 19.375 44.9404C18.3457 44.0322 17.2861 43.1644 16.1963 42.3369C15.2275 44.3551 13.9359 45.9294 12.3213 47.0596C10.7269 48.21 8.76921 48.7852 6.44824 48.7852ZM6.81152 47.6045C8.76921 47.6045 10.3737 47.0192 11.625 45.8486C12.8965 44.6781 13.8148 43.0938 14.3799 41.0957C13.3506 40.4701 12.2406 39.9554 11.0498 39.5518C9.85905 39.1481 8.50684 38.9463 6.99316 38.9463C6.69043 38.9463 6.27669 38.9967 5.75195 39.0977C5.2474 39.1986 4.74284 39.4004 4.23828 39.7031C3.75391 40.0059 3.33008 40.4499 2.9668 41.0352C2.60352 41.6003 2.42188 42.3672 2.42188 43.3359C2.42188 43.9818 2.53288 44.5671 2.75488 45.0918C2.99707 45.5964 3.3099 46.0404 3.69336 46.4238C4.09701 46.8073 4.5612 47.0999 5.08594 47.3018C5.63086 47.5036 6.20605 47.6045 6.81152 47.6045ZM54.2803 42.8516C53.0088 42.8516 51.9492 42.3369 51.1016 41.3076C50.2741 40.2783 49.8604 38.7243 49.8604 36.6455C49.8604 35.2731 50.1328 33.5273 50.6777 31.4082C51.2428 29.2689 52.2116 26.8571 53.584 24.1729L54.7041 24.4756C54.583 25.0003 54.3812 25.7168 54.0986 26.625C53.8363 27.5332 53.5638 28.5524 53.2812 29.6826C53.0189 30.7926 52.7868 31.9632 52.585 33.1943C52.3831 34.4053 52.2822 35.5758 52.2822 36.7061C52.2822 37.6546 52.3529 38.4316 52.4941 39.0371C52.6354 39.6224 52.8171 40.0866 53.0391 40.4297C53.2812 40.7526 53.5537 40.9746 53.8564 41.0957C54.1794 41.2168 54.5225 41.2773 54.8857 41.2773C55.471 41.2773 56.026 41.0957 56.5508 40.7324C57.0755 40.3691 57.57 39.8949 58.0342 39.3096C58.5186 38.7041 58.9626 38.0381 59.3662 37.3115C59.79 36.5648 60.1634 35.818 60.4863 35.0713C60.8294 34.3245 61.1322 33.6182 61.3945 32.9521C61.6569 32.266 61.8688 31.6807 62.0303 31.1963L63.2109 31.499C62.9889 32.1045 62.7266 32.8109 62.4238 33.6182C62.1413 34.4053 61.8083 35.2227 61.4248 36.0703C61.0615 36.918 60.6478 37.7454 60.1836 38.5527C59.7194 39.36 59.1947 40.0866 58.6094 40.7324C58.0241 41.3581 57.3682 41.8727 56.6416 42.2764C55.9352 42.6598 55.1481 42.8516 54.2803 42.8516ZM59.1846 14.6367C59.1846 15.3431 58.9121 15.888 58.3672 16.2715C57.8223 16.6549 57.1361 16.8467 56.3086 16.8467C55.8848 16.8467 55.4811 16.7861 55.0977 16.665C54.7344 16.5238 54.4115 16.3522 54.1289 16.1504C53.8665 15.9284 53.6546 15.6761 53.4932 15.3936C53.3519 15.0908 53.2812 14.778 53.2812 14.4551C53.2812 13.7689 53.5436 13.2139 54.0684 12.79C54.6133 12.3662 55.2389 12.1543 55.9453 12.1543C56.4499 12.1543 56.904 12.235 57.3076 12.3965C57.7113 12.5378 58.0544 12.7295 58.3369 12.9717C58.6195 13.2139 58.8314 13.4863 58.9727 13.7891C59.1139 14.0716 59.1846 14.3542 59.1846 14.6367ZM57.5498 14.6367C57.5498 14.4349 57.459 14.2533 57.2773 14.0918C57.1159 13.9102 56.8636 13.8193 56.5205 13.8193C55.8949 13.8193 55.582 14.0514 55.582 14.5156C55.582 14.7376 55.6729 14.9294 55.8545 15.0908C56.0563 15.2321 56.3187 15.3027 56.6416 15.3027C56.9443 15.3027 57.1663 15.2422 57.3076 15.1211C57.4691 14.9798 57.5498 14.8184 57.5498 14.6367ZM64.2402 28.8955C64.0182 29.4808 63.7962 30.056 63.5742 30.6211C63.3724 31.1862 63.1403 31.7513 62.8779 32.3164C62.6357 32.8815 62.3431 33.4365 62 33.9814C61.6569 34.5264 61.2432 35.0814 60.7588 35.6465L60.5166 35.4043C61.0413 34.1328 61.5055 32.8311 61.9092 31.499C62.3128 30.167 62.7165 28.6735 63.1201 27.0186C63.0192 26.736 62.9284 26.4938 62.8477 26.292C62.7669 26.0902 62.6963 25.9085 62.6357 25.7471C62.5752 25.5654 62.5247 25.3838 62.4844 25.2021C62.444 25.0003 62.4238 24.7783 62.4238 24.5361C62.4238 24.2132 62.4642 23.86 62.5449 23.4766C62.6458 23.0729 62.777 22.6995 62.9385 22.3564C63.1201 22.0133 63.3219 21.7308 63.5439 21.5088C63.766 21.2666 63.998 21.1455 64.2402 21.1455C64.5228 21.1455 64.7448 21.2161 64.9062 21.3574C65.0879 21.4785 65.2292 21.64 65.3301 21.8418C65.431 22.0436 65.5016 22.2555 65.542 22.4775C65.5824 22.6995 65.6025 22.9115 65.6025 23.1133C65.6025 23.416 65.5622 23.7692 65.4814 24.1729C65.4209 24.5563 65.3402 24.9398 65.2393 25.3232C65.1585 25.6865 65.0778 26.0094 64.9971 26.292C64.9365 26.5745 64.9062 26.7562 64.9062 26.8369C65.0677 27.3818 65.3402 27.9368 65.7236 28.502C66.1273 29.0671 66.5814 29.6423 67.0859 30.2275C67.5905 30.8128 68.1152 31.4284 68.6602 32.0742C69.2253 32.6999 69.7298 33.3659 70.1738 34.0723C70.638 34.7786 71.0114 35.5355 71.2939 36.3428C71.5967 37.1299 71.748 37.9674 71.748 38.8555C71.748 40.127 71.5563 41.1562 71.1729 41.9434C70.8096 42.7305 70.3151 43.3359 69.6895 43.7598C70.5977 43.3965 71.4453 42.7507 72.2324 41.8223C73.0397 40.8939 73.7764 39.8343 74.4424 38.6436C75.1286 37.4326 75.7542 36.1712 76.3193 34.8594C76.9046 33.5475 77.4193 32.3265 77.8633 31.1963L79.0439 31.499C78.3577 33.2549 77.6312 34.9704 76.8643 36.6455C76.0973 38.3206 75.2295 39.8141 74.2607 41.126C73.292 42.4378 72.1921 43.4974 70.9609 44.3047C69.75 45.112 68.3574 45.5156 66.7832 45.5156C66.3594 45.5156 65.9255 45.4854 65.4814 45.4248C65.0576 45.3441 64.6338 45.2331 64.21 45.0918C63.8063 44.9303 63.4229 44.7184 63.0596 44.4561C62.6963 44.1937 62.3835 43.8809 62.1211 43.5176L63.1201 42.8516C63.3018 43.1341 63.5843 43.3965 63.9678 43.6387C64.3512 43.8809 64.8558 44.002 65.4814 44.002C66.0869 44.002 66.6117 43.8809 67.0557 43.6387C67.5199 43.3763 67.9033 43.0332 68.2061 42.6094C68.529 42.1654 68.7611 41.6507 68.9023 41.0654C69.0638 40.4801 69.1445 39.8545 69.1445 39.1885C69.1445 37.8161 68.9427 36.6354 68.5391 35.6465C68.1556 34.6576 67.6914 33.7796 67.1465 33.0127C66.6217 32.2256 66.0768 31.5091 65.5117 30.8633C64.9668 30.2174 64.543 29.5615 64.2402 28.8955ZM71.4756 20.5098C71.7783 20.6914 72.1416 20.9033 72.5654 21.1455C72.9893 21.3877 73.4837 21.6198 74.0488 21.8418C74.6139 22.0638 75.2396 22.2757 75.9258 22.4775C76.6322 22.6592 77.3991 22.7904 78.2266 22.8711C78.5091 21.0547 78.8724 19.4199 79.3164 17.9668C79.7604 16.4935 80.2448 15.2422 80.7695 14.2129C81.3145 13.1634 81.8695 12.3662 82.4346 11.8213C83.0199 11.2562 83.585 10.9736 84.1299 10.9736C84.7555 10.9736 85.1995 11.2158 85.4619 11.7002C85.7243 12.1846 85.8555 12.8304 85.8555 13.6377C85.8555 14.223 85.7949 14.8688 85.6738 15.5752C85.5527 16.2816 85.3913 17.0384 85.1895 17.8457C84.9876 18.6328 84.7454 19.4603 84.4629 20.3281C84.1803 21.1758 83.8877 22.0234 83.585 22.8711C85.6032 22.6895 87.46 22.3564 89.1553 21.8721C90.8708 21.3877 92.3542 20.8932 93.6055 20.3887L94.1807 21.5088C92.5257 22.1344 90.8102 22.6995 89.0342 23.2041C87.2581 23.6885 85.2702 23.9912 83.0703 24.1123C82.5658 25.4242 82.041 26.6755 81.4961 27.8662C80.9714 29.0368 80.487 30.056 80.043 30.9238C80.0632 32.054 80.1237 33.2852 80.2246 34.6172C80.3457 35.929 80.5677 37.1602 80.8906 38.3105C81.2337 39.4609 81.708 40.4196 82.3135 41.1865C82.9391 41.9535 83.7565 42.3369 84.7656 42.3369C85.6133 42.3369 86.3903 41.9837 87.0967 41.2773C87.8031 40.5508 88.4489 39.6426 89.0342 38.5527C89.6396 37.4427 90.1947 36.2318 90.6992 34.9199C91.2038 33.6081 91.6781 32.3669 92.1221 31.1963L93.3027 31.499C93.0202 32.2256 92.7174 33.043 92.3945 33.9512C92.0716 34.8594 91.7083 35.7878 91.3047 36.7363C90.901 37.6647 90.457 38.5729 89.9727 39.4609C89.4883 40.3288 88.9535 41.1159 88.3682 41.8223C87.7829 42.5085 87.137 43.0635 86.4307 43.4873C85.7243 43.891 84.9574 44.0928 84.1299 44.0928C83.2419 44.0928 82.4043 43.891 81.6172 43.4873C80.8503 43.0837 80.1742 42.3672 79.5889 41.3379C79.0238 40.2884 78.5697 38.8757 78.2266 37.0996C77.9036 35.3034 77.7422 33.0228 77.7422 30.2578C77.7422 28.0378 77.8633 25.9691 78.1055 24.0518C76.3698 23.8298 74.9167 23.4867 73.7461 23.0225C72.5553 22.5381 71.637 22.0739 70.9912 21.6299L71.4756 20.5098ZM84.3115 12.5781C84.1299 12.5781 83.8574 12.7598 83.4941 13.123C83.1309 13.4863 82.7474 14.0817 82.3438 14.9092C81.9401 15.7165 81.5465 16.7861 81.1631 18.1182C80.7998 19.43 80.5072 21.0547 80.2852 22.9922H80.8604H82.3438C82.707 21.9831 83.0199 21.0042 83.2822 20.0557C83.5648 19.1071 83.807 18.2292 84.0088 17.4219C84.2106 16.5944 84.362 15.8577 84.4629 15.2119C84.5638 14.5459 84.6143 14.001 84.6143 13.5771C84.6143 12.9111 84.5133 12.5781 84.3115 12.5781ZM80.043 28.502C80.3861 27.7956 80.709 27.0892 81.0117 26.3828C81.3145 25.6562 81.6071 24.9196 81.8896 24.1729H80.7695H80.1641C80.1237 24.8187 80.0934 25.5049 80.0732 26.2314C80.0531 26.9378 80.043 27.6745 80.043 28.4414V28.502ZM98.7822 45.5762C97.7529 45.5762 96.764 45.3945 95.8154 45.0312C94.8669 44.668 94.0293 44.123 93.3027 43.3965C92.5964 42.6497 92.0312 41.7214 91.6074 40.6113C91.1836 39.5013 90.9717 38.1995 90.9717 36.7061C90.9717 34.8896 91.234 33.2751 91.7588 31.8623C92.2835 30.4294 92.9495 29.2285 93.7568 28.2598C94.5843 27.2708 95.5026 26.5241 96.5117 26.0195C97.5208 25.4948 98.5098 25.2324 99.4785 25.2324C100.73 25.2324 101.719 25.6462 102.445 26.4736C103.192 27.3011 103.565 28.3708 103.565 29.6826C103.565 30.8128 103.354 31.8421 102.93 32.7705C102.506 33.6787 101.941 34.4658 101.234 35.1318C100.548 35.7777 99.751 36.2822 98.8428 36.6455C97.9548 37.0088 97.0264 37.1904 96.0576 37.1904C95.5934 37.1904 95.1494 37.1702 94.7256 37.1299C94.3219 37.0693 93.9587 37.0088 93.6357 36.9482C93.7568 38.1995 93.999 39.2793 94.3623 40.1875C94.7256 41.0957 95.1797 41.8424 95.7246 42.4277C96.2695 43.013 96.875 43.4469 97.541 43.7295C98.2272 44.012 98.9336 44.1533 99.6602 44.1533C100.568 44.1533 101.406 43.9313 102.173 43.4873C102.94 43.0433 103.646 42.4681 104.292 41.7617C104.938 41.0352 105.523 40.2077 106.048 39.2793C106.593 38.3509 107.077 37.4124 107.501 36.4639C107.925 35.4951 108.298 34.5566 108.621 33.6484C108.964 32.7201 109.267 31.9027 109.529 31.1963L110.71 31.499C110.448 32.165 110.135 32.9723 109.771 33.9209C109.428 34.8695 109.025 35.8685 108.561 36.918C108.096 37.9473 107.551 38.9867 106.926 40.0361C106.3 41.0654 105.594 41.9938 104.807 42.8213C104.02 43.6286 103.121 44.2946 102.112 44.8193C101.123 45.3239 100.013 45.5762 98.7822 45.5762ZM99.5391 26.4131C98.7923 26.4131 98.0557 26.6553 97.3291 27.1396C96.6227 27.6038 95.987 28.2497 95.4219 29.0771C94.8568 29.9046 94.3926 30.8835 94.0293 32.0137C93.6862 33.1439 93.5146 34.3548 93.5146 35.6465C93.777 35.7474 94.1403 35.8382 94.6045 35.9189C95.0889 35.9795 95.6742 36.0098 96.3604 36.0098C97.0869 36.0098 97.8034 35.8584 98.5098 35.5557C99.2363 35.2327 99.8822 34.7988 100.447 34.2539C101.033 33.6888 101.497 33.0228 101.84 32.2559C102.203 31.4889 102.385 30.6514 102.385 29.7432C102.385 29.2992 102.324 28.8753 102.203 28.4717C102.082 28.068 101.9 27.7148 101.658 27.4121C101.416 27.1094 101.113 26.8672 100.75 26.6855C100.407 26.5039 100.003 26.4131 99.5391 26.4131ZM116.159 45.5762C115.13 45.5762 114.141 45.3945 113.192 45.0312C112.244 44.668 111.406 44.123 110.68 43.3965C109.973 42.6497 109.408 41.7214 108.984 40.6113C108.561 39.5013 108.349 38.1995 108.349 36.7061C108.349 34.8896 108.611 33.2751 109.136 31.8623C109.66 30.4294 110.326 29.2285 111.134 28.2598C111.961 27.2708 112.88 26.5241 113.889 26.0195C114.898 25.4948 115.887 25.2324 116.855 25.2324C118.107 25.2324 119.096 25.6462 119.822 26.4736C120.569 27.3011 120.942 28.3708 120.942 29.6826C120.942 30.8128 120.73 31.8421 120.307 32.7705C119.883 33.6787 119.318 34.4658 118.611 35.1318C117.925 35.7777 117.128 36.2822 116.22 36.6455C115.332 37.0088 114.403 37.1904 113.435 37.1904C112.97 37.1904 112.526 37.1702 112.103 37.1299C111.699 37.0693 111.336 37.0088 111.013 36.9482C111.134 38.1995 111.376 39.2793 111.739 40.1875C112.103 41.0957 112.557 41.8424 113.102 42.4277C113.646 43.013 114.252 43.4469 114.918 43.7295C115.604 44.012 116.311 44.1533 117.037 44.1533C117.945 44.1533 118.783 43.9313 119.55 43.4873C120.317 43.0433 121.023 42.4681 121.669 41.7617C122.315 41.0352 122.9 40.2077 123.425 39.2793C123.97 38.3509 124.454 37.4124 124.878 36.4639C125.302 35.4951 125.675 34.5566 125.998 33.6484C126.341 32.7201 126.644 31.9027 126.906 31.1963L128.087 31.499C127.825 32.165 127.512 32.9723 127.148 33.9209C126.805 34.8695 126.402 35.8685 125.938 36.918C125.473 37.9473 124.928 38.9867 124.303 40.0361C123.677 41.0654 122.971 41.9938 122.184 42.8213C121.396 43.6286 120.498 44.2946 119.489 44.8193C118.5 45.3239 117.39 45.5762 116.159 45.5762ZM116.916 26.4131C116.169 26.4131 115.433 26.6553 114.706 27.1396C114 27.6038 113.364 28.2497 112.799 29.0771C112.234 29.9046 111.77 30.8835 111.406 32.0137C111.063 33.1439 110.892 34.3548 110.892 35.6465C111.154 35.7474 111.517 35.8382 111.981 35.9189C112.466 35.9795 113.051 36.0098 113.737 36.0098C114.464 36.0098 115.18 35.8584 115.887 35.5557C116.613 35.2327 117.259 34.7988 117.824 34.2539C118.41 33.6888 118.874 33.0228 119.217 32.2559C119.58 31.4889 119.762 30.6514 119.762 29.7432C119.762 29.2992 119.701 28.8753 119.58 28.4717C119.459 28.068 119.277 27.7148 119.035 27.4121C118.793 27.1094 118.49 26.8672 118.127 26.6855C117.784 26.5039 117.38 26.4131 116.916 26.4131ZM157.149 51.0254C154.97 51.0254 153.002 50.7428 151.246 50.1777C149.49 49.6328 147.987 48.8659 146.735 47.877C145.484 46.9082 144.515 45.7578 143.829 44.4258C143.163 43.0938 142.83 41.6507 142.83 40.0967C142.83 39.915 142.83 39.7233 142.83 39.5215C142.83 39.3197 142.85 39.1279 142.891 38.9463L144.071 39.0674C144.031 39.249 144.011 39.4206 144.011 39.582C144.011 39.7233 144.011 39.8747 144.011 40.0361C144.011 41.4287 144.324 42.7204 144.949 43.9111C145.575 45.1019 146.443 46.1312 147.553 46.999C148.683 47.887 150.025 48.5833 151.579 49.0879C153.153 49.5924 154.889 49.8447 156.786 49.8447C158.522 49.8447 160.035 49.5924 161.327 49.0879C162.639 48.5833 163.759 47.8971 164.688 47.0293C165.616 46.1615 166.383 45.1322 166.988 43.9414C167.614 42.7507 168.108 41.4792 168.472 40.127C168.855 38.7747 169.138 37.362 169.319 35.8887C169.501 34.4154 169.622 32.9521 169.683 31.499C169.743 30.0459 169.773 28.6331 169.773 27.2607C169.773 25.8883 169.784 24.6169 169.804 23.4463C169.844 20.5602 170.207 18.0072 170.894 15.7871C171.6 13.5671 172.458 11.6094 173.467 9.91406C172.054 9.44987 170.631 8.85449 169.198 8.12793C167.765 7.38118 166.332 6.65462 164.899 5.94824C163.466 5.24186 162.013 4.63639 160.54 4.13184C159.087 3.6071 157.624 3.34473 156.15 3.34473C153.749 3.34473 151.71 3.66764 150.035 4.31348C148.36 4.95931 146.998 5.79688 145.948 6.82617C144.899 7.83529 144.132 8.96549 143.647 10.2168C143.183 11.4681 142.951 12.7093 142.951 13.9404C142.951 15.3734 143.183 16.6953 143.647 17.9062C144.132 19.1172 144.798 20.1667 145.646 21.0547C146.513 21.9427 147.533 22.639 148.703 23.1436C149.874 23.6279 151.155 23.8701 152.548 23.8701C153.88 23.8701 155.081 23.6279 156.15 23.1436C157.24 22.639 158.159 22.084 158.905 21.4785C159.672 20.873 160.257 20.318 160.661 19.8135C161.065 19.3089 161.277 19.0465 161.297 19.0264L162.235 19.7227C162.235 19.7428 162.124 19.9043 161.902 20.207C161.68 20.4896 161.347 20.8428 160.903 21.2666C160.479 21.6904 159.945 22.1546 159.299 22.6592C158.653 23.1436 157.896 23.5977 157.028 24.0215C156.181 24.4251 155.232 24.7682 154.183 25.0508C153.153 25.3333 152.013 25.4746 150.762 25.4746C149.49 25.4746 148.188 25.2627 146.856 24.8389C145.545 24.3949 144.344 23.7389 143.254 22.8711C142.184 21.9831 141.306 20.873 140.62 19.541C139.934 18.209 139.591 16.6549 139.591 14.8789C139.591 13.1432 139.934 11.5085 140.62 9.97461C141.306 8.42057 142.305 7.06836 143.617 5.91797C144.929 4.76758 146.554 3.85938 148.491 3.19336C150.429 2.50716 152.649 2.16406 155.151 2.16406C156.423 2.16406 157.644 2.29525 158.814 2.55762C160.005 2.7998 161.146 3.12272 162.235 3.52637C163.325 3.93001 164.375 4.38411 165.384 4.88867C166.413 5.39323 167.412 5.89779 168.381 6.40234C169.37 6.9069 170.328 7.38118 171.257 7.8252C172.205 8.26921 173.144 8.63249 174.072 8.91504C174.819 7.80501 175.566 6.83626 176.312 6.00879C177.059 5.18132 177.735 4.49512 178.341 3.9502C178.966 3.40527 179.471 2.99154 179.854 2.70898C180.238 2.42643 180.44 2.26497 180.46 2.22461L181.156 3.22363C181.015 3.30436 180.753 3.486 180.369 3.76855C180.006 4.05111 179.572 4.45475 179.067 4.97949C178.583 5.48405 178.058 6.09961 177.493 6.82617C176.948 7.55273 176.413 8.40039 175.889 9.36914C176.191 9.40951 176.484 9.43978 176.767 9.45996C177.049 9.48014 177.352 9.49023 177.675 9.49023C179.148 9.49023 180.46 9.30859 181.61 8.94531C182.781 8.56185 183.8 8.08757 184.668 7.52246C185.556 6.93717 186.313 6.31152 186.938 5.64551C187.564 4.95931 188.069 4.32357 188.452 3.73828C188.856 3.13281 189.148 2.62826 189.33 2.22461C189.532 1.80078 189.653 1.55859 189.693 1.49805L190.813 1.86133C190.793 1.88151 190.682 2.11361 190.48 2.55762C190.279 3.00163 189.956 3.55664 189.512 4.22266C189.088 4.86849 188.533 5.56478 187.847 6.31152C187.16 7.05827 186.333 7.75456 185.364 8.40039C184.396 9.04622 183.265 9.59115 181.974 10.0352C180.702 10.459 179.249 10.6709 177.614 10.6709C177.231 10.6709 176.847 10.6507 176.464 10.6104C176.08 10.57 175.697 10.4993 175.313 10.3984C174.688 11.7103 174.163 13.2139 173.739 14.9092C173.336 16.5843 173.134 18.4512 173.134 20.5098C173.134 22.2051 173.204 23.971 173.346 25.8076C173.507 27.624 173.588 29.4404 173.588 31.2568C173.588 34.0622 173.275 36.6758 172.649 39.0977C172.044 41.4993 171.075 43.5882 169.743 45.3643C168.411 47.1201 166.706 48.5026 164.627 49.5117C162.548 50.5208 160.056 51.0254 157.149 51.0254ZM186.303 29.8945C186.101 30.6009 185.899 31.2064 185.697 31.7109C185.495 32.2155 185.273 32.6898 185.031 33.1338C184.789 33.5576 184.517 33.9714 184.214 34.375C183.931 34.7585 183.608 35.1823 183.245 35.6465L183.003 35.4043C183.467 34.2135 183.871 33.0934 184.214 32.0439C184.577 30.9945 184.9 29.945 185.183 28.8955C184.86 28.4313 184.577 27.8561 184.335 27.1699C184.113 26.4635 184.002 25.626 184.002 24.6572C184.002 23.7894 184.133 23.0729 184.396 22.5078C184.678 21.9225 185.041 21.6299 185.485 21.6299C185.728 21.6299 185.95 21.7409 186.151 21.9629C186.373 22.1849 186.555 22.4775 186.696 22.8408C186.838 23.2041 186.949 23.6279 187.029 24.1123C187.11 24.5765 187.15 25.071 187.15 25.5957C187.15 25.8379 187.13 26.1003 187.09 26.3828C187.07 26.6654 187.039 26.958 186.999 27.2607C186.959 27.5433 186.908 27.8258 186.848 28.1084C186.787 28.3708 186.727 28.5928 186.666 28.7744C186.787 28.8753 186.979 28.9661 187.241 29.0469C187.524 29.1074 187.887 29.1377 188.331 29.1377C189.098 29.1377 189.774 29.0267 190.359 28.8047C190.945 28.5827 191.409 28.3001 191.752 27.957C192.055 27.4727 192.287 27.0993 192.448 26.8369C192.63 26.5745 192.771 26.3828 192.872 26.2617C192.973 26.1204 193.044 26.0397 193.084 26.0195C193.145 25.9792 193.215 25.959 193.296 25.959C193.518 25.959 193.7 26.0195 193.841 26.1406C193.982 26.2617 194.053 26.4333 194.053 26.6553C194.053 26.7158 194.022 26.7965 193.962 26.8975C193.901 26.9984 193.821 27.1296 193.72 27.291C192.872 28.5221 192.206 29.8743 191.722 31.3477C191.237 32.821 190.995 34.4557 190.995 36.252C190.995 38.3307 191.328 39.8343 191.994 40.7627C192.68 41.6911 193.649 42.1553 194.9 42.1553C195.587 42.1553 196.243 41.9535 196.868 41.5498C197.494 41.126 198.109 40.4801 198.715 39.6123C199.32 38.7243 199.926 37.5941 200.531 36.2217C201.157 34.8291 201.823 33.154 202.529 31.1963L203.71 31.499C202.842 34.0622 202.025 36.1712 201.258 37.8262C200.491 39.4609 199.734 40.7627 198.987 41.7314C198.241 42.68 197.474 43.346 196.687 43.7295C195.899 44.0928 195.042 44.2744 194.113 44.2744C193.528 44.2744 192.923 44.1432 192.297 43.8809C191.671 43.6185 191.096 43.2048 190.571 42.6396C190.067 42.0745 189.653 41.348 189.33 40.46C189.007 39.5518 188.846 38.4619 188.846 37.1904C188.846 36.5648 188.896 35.9189 188.997 35.2529C189.118 34.5667 189.27 33.9108 189.451 33.2852C189.633 32.6393 189.835 32.0238 190.057 31.4385C190.279 30.833 190.511 30.2881 190.753 29.8037C190.026 30.1468 189.239 30.3184 188.392 30.3184C187.564 30.3184 186.868 30.1771 186.303 29.8945ZM225.84 31.499C225.012 33.7393 224.256 35.6162 223.569 37.1299C222.903 38.6436 222.247 39.8646 221.602 40.793C220.976 41.7214 220.35 42.3874 219.725 42.791C219.099 43.1947 218.413 43.3965 217.666 43.3965C216.758 43.3965 215.981 43.0837 215.335 42.458C214.689 41.8122 214.285 40.8232 214.124 39.4912C213.478 40.8838 212.641 42.0241 211.611 42.9121C210.582 43.7799 209.29 44.2139 207.736 44.2139C206.909 44.2139 206.112 44.0625 205.345 43.7598C204.598 43.457 203.932 42.9928 203.347 42.3672C202.761 41.7214 202.287 40.9141 201.924 39.9453C201.581 38.9766 201.409 37.8363 201.409 36.5244C201.409 35.1924 201.571 33.9411 201.894 32.7705C202.237 31.5999 202.681 30.5303 203.226 29.5615C203.771 28.5726 204.396 27.6947 205.103 26.9277C205.829 26.1608 206.576 25.515 207.343 24.9902C208.11 24.4655 208.877 24.0618 209.644 23.7793C210.41 23.4967 211.117 23.3555 211.763 23.3555C212.328 23.3555 212.873 23.4261 213.397 23.5674C213.922 23.7087 214.386 23.9408 214.79 24.2637C215.214 24.5664 215.547 24.9801 215.789 25.5049C216.051 26.0296 216.183 26.6855 216.183 27.4727C216.183 28.401 216.001 29.2083 215.638 29.8945C215.295 30.5807 214.871 31.1559 214.366 31.6201C213.882 32.0843 213.377 32.4577 212.853 32.7402C212.348 33.0228 211.944 33.2246 211.642 33.3457L211.278 32.165C211.339 32.165 211.561 32.0843 211.944 31.9229C212.348 31.7614 212.762 31.499 213.186 31.1357C213.63 30.7523 214.033 30.2679 214.396 29.6826C214.76 29.0973 214.941 28.3809 214.941 27.5332C214.941 26.5645 214.669 25.8278 214.124 25.3232C213.579 24.7985 212.883 24.5361 212.035 24.5361C211.389 24.5361 210.632 24.7682 209.765 25.2324C208.897 25.6966 208.059 26.4232 207.252 27.4121C206.465 28.401 205.789 29.6523 205.224 31.166C204.679 32.6797 204.406 34.486 204.406 36.585C204.406 38.6637 204.77 40.248 205.496 41.3379C206.243 42.4277 207.242 42.9727 208.493 42.9727C209.119 42.9727 209.714 42.8011 210.279 42.458C210.865 42.0947 211.399 41.6204 211.884 41.0352C212.368 40.4499 212.802 39.7738 213.186 39.0068C213.569 38.2197 213.902 37.4124 214.185 36.585C214.185 35.9391 214.255 35.1823 214.396 34.3145C214.558 33.4264 214.8 32.5283 215.123 31.6201L216.97 32.2256C216.869 32.488 216.768 32.8311 216.667 33.2549C216.566 33.6787 216.465 34.1429 216.364 34.6475C216.284 35.152 216.213 35.6768 216.152 36.2217C216.092 36.7464 216.062 37.2611 216.062 37.7656C216.062 39.3398 216.213 40.4297 216.516 41.0352C216.839 41.6204 217.383 41.9131 218.15 41.9131C218.594 41.9131 219.028 41.7516 219.452 41.4287C219.896 41.1058 220.37 40.5407 220.875 39.7334C221.38 38.9261 221.935 37.8363 222.54 36.4639C223.146 35.0713 223.852 33.3154 224.659 31.1963L225.84 31.499ZM246.032 31.499C245.407 32.9925 244.811 34.2741 244.246 35.3438C243.701 36.4134 243.156 37.3014 242.611 38.0078C242.066 38.694 241.501 39.2087 240.916 39.5518C240.351 39.8747 239.735 40.0361 239.069 40.0361C238.161 40.0361 237.384 39.7536 236.738 39.1885C236.113 38.6032 235.739 37.8766 235.618 37.0088C235.053 38.3206 234.458 39.5013 233.832 40.5508C233.206 41.5801 232.581 42.458 231.955 43.1846C231.329 43.9111 230.724 44.4762 230.139 44.8799C229.553 45.2633 229.039 45.4551 228.595 45.4551C228.231 45.4551 227.777 45.3037 227.232 45.001C226.708 44.6982 226.203 44.1937 225.719 43.4873C225.234 42.7809 224.821 41.8525 224.478 40.7021C224.134 39.5316 223.963 38.0986 223.963 36.4033C223.963 35.2933 224.034 34.2741 224.175 33.3457C224.336 32.3971 224.508 31.5798 224.689 30.8936C224.911 30.0863 225.164 29.3597 225.446 28.7139L226.627 28.835C226.526 29.7028 226.455 30.5505 226.415 31.3779C226.395 32.1852 226.385 32.9622 226.385 33.709C226.385 35.3841 226.465 36.8776 226.627 38.1895C226.788 39.5013 226.98 40.6113 227.202 41.5195C227.444 42.4076 227.707 43.0938 227.989 43.5781C228.272 44.0423 228.534 44.2744 228.776 44.2744C229.059 44.2744 229.452 44.0524 229.957 43.6084C230.462 43.1442 231.017 42.5085 231.622 41.7012C232.228 40.8939 232.843 39.9453 233.469 38.8555C234.094 37.7656 234.66 36.5951 235.164 35.3438C235.104 34.9603 235.033 34.4961 234.952 33.9512C234.892 33.3861 234.861 32.9017 234.861 32.498C234.861 31.166 234.972 30.0964 235.194 29.2891C235.437 28.4818 235.709 27.8662 236.012 27.4424C236.335 27.0186 236.658 26.7461 236.98 26.625C237.303 26.4837 237.546 26.4131 237.707 26.4131C238.252 26.4131 238.524 26.8268 238.524 27.6543C238.524 28.0781 238.464 28.5928 238.343 29.1982C238.242 29.8037 238.101 30.4395 237.919 31.1055C237.757 31.7715 237.566 32.4375 237.344 33.1035C237.122 33.7695 236.89 34.3851 236.647 34.9502C236.647 35.6566 236.718 36.252 236.859 36.7363C237.021 37.2005 237.223 37.584 237.465 37.8867C237.727 38.1693 238.02 38.3711 238.343 38.4922C238.666 38.6133 238.999 38.6738 239.342 38.6738C240.21 38.6738 241.088 38.0684 241.976 36.8574C242.864 35.6263 243.822 33.7393 244.852 31.1963L246.032 31.499ZM251.481 45.5762C250.452 45.5762 249.463 45.3945 248.515 45.0312C247.566 44.668 246.729 44.123 246.002 43.3965C245.296 42.6497 244.73 41.7214 244.307 40.6113C243.883 39.5013 243.671 38.1995 243.671 36.7061C243.671 34.8896 243.933 33.2751 244.458 31.8623C244.983 30.4294 245.649 29.2285 246.456 28.2598C247.284 27.2708 248.202 26.5241 249.211 26.0195C250.22 25.4948 251.209 25.2324 252.178 25.2324C253.429 25.2324 254.418 25.6462 255.145 26.4736C255.891 27.3011 256.265 28.3708 256.265 29.6826C256.265 30.8128 256.053 31.8421 255.629 32.7705C255.205 33.6787 254.64 34.4658 253.934 35.1318C253.247 35.7777 252.45 36.2822 251.542 36.6455C250.654 37.0088 249.726 37.1904 248.757 37.1904C248.293 37.1904 247.849 37.1702 247.425 37.1299C247.021 37.0693 246.658 37.0088 246.335 36.9482C246.456 38.1995 246.698 39.2793 247.062 40.1875C247.425 41.0957 247.879 41.8424 248.424 42.4277C248.969 43.013 249.574 43.4469 250.24 43.7295C250.926 44.012 251.633 44.1533 252.359 44.1533C253.268 44.1533 254.105 43.9313 254.872 43.4873C255.639 43.0433 256.345 42.4681 256.991 41.7617C257.637 41.0352 258.222 40.2077 258.747 39.2793C259.292 38.3509 259.776 37.4124 260.2 36.4639C260.624 35.4951 260.997 34.5566 261.32 33.6484C261.663 32.7201 261.966 31.9027 262.229 31.1963L263.409 31.499C263.147 32.165 262.834 32.9723 262.471 33.9209C262.128 34.8695 261.724 35.8685 261.26 36.918C260.796 37.9473 260.251 38.9867 259.625 40.0361C258.999 41.0654 258.293 41.9938 257.506 42.8213C256.719 43.6286 255.821 44.2946 254.812 44.8193C253.823 45.3239 252.713 45.5762 251.481 45.5762ZM252.238 26.4131C251.492 26.4131 250.755 26.6553 250.028 27.1396C249.322 27.6038 248.686 28.2497 248.121 29.0771C247.556 29.9046 247.092 30.8835 246.729 32.0137C246.385 33.1439 246.214 34.3548 246.214 35.6465C246.476 35.7474 246.84 35.8382 247.304 35.9189C247.788 35.9795 248.373 36.0098 249.06 36.0098C249.786 36.0098 250.503 35.8584 251.209 35.5557C251.936 35.2327 252.581 34.7988 253.146 34.2539C253.732 33.6888 254.196 33.0228 254.539 32.2559C254.902 31.4889 255.084 30.6514 255.084 29.7432C255.084 29.2992 255.023 28.8753 254.902 28.4717C254.781 28.068 254.6 27.7148 254.357 27.4121C254.115 27.1094 253.812 26.8672 253.449 26.6855C253.106 26.5039 252.702 26.4131 252.238 26.4131ZM272.703 7.85547C272.703 9.12695 272.552 10.4792 272.249 11.9121C271.966 13.3451 271.583 14.7982 271.099 16.2715C270.634 17.7448 270.09 19.2282 269.464 20.7217C268.858 22.2152 268.243 23.6481 267.617 25.0205C266.992 26.3929 266.376 27.6947 265.771 28.9258C265.165 30.1569 264.63 31.2568 264.166 32.2256C264.247 33.8805 264.388 35.374 264.59 36.7061C264.792 38.0381 265.044 39.1784 265.347 40.127C265.649 41.0553 266.013 41.7718 266.437 42.2764C266.86 42.7809 267.345 43.0332 267.89 43.0332C268.495 43.0332 269.09 42.7507 269.676 42.1855C270.281 41.6204 270.887 40.8232 271.492 39.7939C272.098 38.7646 272.713 37.5234 273.339 36.0703C273.965 34.6172 274.6 32.9925 275.246 31.1963L276.427 31.499C275.942 32.8916 275.397 34.3649 274.792 35.9189C274.187 37.4528 273.51 38.8656 272.764 40.1572C272.017 41.4489 271.2 42.5186 270.312 43.3662C269.444 44.2139 268.505 44.6377 267.496 44.6377C266.487 44.6377 265.639 44.3249 264.953 43.6992C264.267 43.0736 263.702 42.2562 263.258 41.2471C262.814 40.2178 262.471 39.0573 262.229 37.7656C261.986 36.4538 261.805 35.1217 261.684 33.7695C261.562 32.4173 261.492 31.1055 261.472 29.834C261.451 28.5423 261.441 27.402 261.441 26.4131C261.441 24.5765 261.512 22.75 261.653 20.9336C261.815 19.1172 262.047 17.3815 262.35 15.7266C262.673 14.0716 263.056 12.5378 263.5 11.125C263.944 9.69206 264.459 8.46094 265.044 7.43164C265.649 6.38216 266.305 5.56478 267.012 4.97949C267.738 4.39421 268.525 4.10156 269.373 4.10156C269.979 4.10156 270.493 4.20247 270.917 4.4043C271.341 4.60612 271.684 4.87858 271.946 5.22168C272.209 5.56478 272.4 5.96842 272.521 6.43262C272.643 6.87663 272.703 7.35091 272.703 7.85547ZM263.984 25.293C263.984 26.0599 263.984 26.8167 263.984 27.5635C263.984 28.29 264.005 28.9964 264.045 29.6826C264.549 28.6735 265.084 27.5736 265.649 26.3828C266.215 25.1719 266.77 23.9307 267.314 22.6592C267.88 21.3675 268.414 20.0658 268.919 18.7539C269.424 17.4421 269.868 16.1605 270.251 14.9092C270.634 13.6377 270.937 12.4368 271.159 11.3066C271.401 10.1562 271.522 9.11686 271.522 8.18848C271.522 7.88574 271.492 7.56283 271.432 7.21973C271.391 6.87663 271.3 6.5638 271.159 6.28125C271.038 5.97852 270.856 5.73633 270.614 5.55469C270.372 5.35286 270.059 5.25195 269.676 5.25195C268.909 5.25195 268.172 5.75651 267.466 6.76562C266.78 7.75456 266.174 9.13704 265.649 10.9131C265.145 12.6891 264.741 14.8083 264.438 17.2705C264.136 19.7126 263.984 22.3867 263.984 25.293Z" fill="white"/>
</svg>
